<svg width="236" height="75" viewBox="0 0 236 75" fill="none" xmlns="http://www.w3.org/2000/svg">
<path d="M10.0312 39.2812L29.0938 45.7188V55.3125L1.4375 44.0625V36.9375L10.0312 39.2812ZM29.0938 34.0625L10 40.625L1.4375 42.875V35.75L29.0938 24.5V34.0625ZM50.9375 59H40.8438L40.9062 50.5625H50.9375C53.0208 50.5625 54.7812 50.0625 56.2188 49.0625C57.6771 48.0625 58.7812 46.5729 59.5312 44.5938C60.3021 42.5938 60.6875 40.1354 60.6875 37.2188V35.25C60.6875 33.0625 60.4688 31.1458 60.0312 29.5C59.6146 27.8333 58.9896 26.4479 58.1562 25.3438C57.3229 24.2188 56.2812 23.375 55.0312 22.8125C53.8021 22.25 52.3854 21.9688 50.7812 21.9688H40.6562V13.5H50.7812C53.8646 13.5 56.6875 14.0312 59.25 15.0938C61.8333 16.1354 64.0625 17.6354 65.9375 19.5938C67.8333 21.5312 69.2917 23.8333 70.3125 26.5C71.3542 29.1458 71.875 32.0833 71.875 35.3125V37.2188C71.875 40.4271 71.3542 43.3646 70.3125 46.0312C69.2917 48.6979 67.8438 51 65.9688 52.9375C64.0938 54.875 61.875 56.375 59.3125 57.4375C56.7708 58.4792 53.9792 59 50.9375 59ZM47.125 13.5V59H36.1562V13.5H47.125ZM94.8125 49.5C94.8125 48.9167 94.6146 48.4167 94.2188 48C93.8438 47.5625 93.1771 47.1667 92.2188 46.8125C91.2604 46.4375 89.9167 46.0625 88.1875 45.6875C86.5417 45.3333 84.9896 44.8646 83.5312 44.2812C82.0938 43.6979 80.8333 42.9896 79.75 42.1562C78.6667 41.3229 77.8125 40.3333 77.1875 39.1875C76.5833 38.0417 76.2812 36.7292 76.2812 35.25C76.2812 33.8125 76.5833 32.4583 77.1875 31.1875C77.8125 29.8958 78.7188 28.7604 79.9062 27.7812C81.1146 26.7812 82.5833 26 84.3125 25.4375C86.0417 24.8542 88.0104 24.5625 90.2188 24.5625C93.2604 24.5625 95.8854 25.0312 98.0938 25.9688C100.302 26.8854 102 28.1771 103.188 29.8438C104.396 31.4896 105 33.3958 105 35.5625H94.4688C94.4688 34.7083 94.3229 33.9792 94.0312 33.375C93.7604 32.7708 93.3125 32.3125 92.6875 32C92.0625 31.6667 91.2292 31.5 90.1875 31.5C89.4583 31.5 88.7917 31.6354 88.1875 31.9062C87.6042 32.1771 87.1354 32.5521 86.7812 33.0312C86.4271 33.5104 86.25 34.0729 86.25 34.7188C86.25 35.1771 86.3542 35.5938 86.5625 35.9688C86.7917 36.3229 87.1354 36.6562 87.5938 36.9688C88.0521 37.2604 88.6354 37.5312 89.3438 37.7812C90.0521 38.0104 90.9062 38.2188 91.9062 38.4062C94.1771 38.8229 96.3021 39.4167 98.2812 40.1875C100.26 40.9583 101.865 42.0521 103.094 43.4688C104.344 44.8854 104.969 46.7917 104.969 49.1875C104.969 50.6875 104.625 52.0729 103.938 53.3438C103.25 54.5938 102.26 55.6979 100.969 56.6562C99.6771 57.5938 98.125 58.3229 96.3125 58.8438C94.5 59.3646 92.4583 59.625 90.1875 59.625C86.9583 59.625 84.2292 59.0521 82 57.9062C79.7708 56.7396 78.0833 55.2812 76.9375 53.5312C75.8125 51.7604 75.25 49.9688 75.25 48.1562H85.0625C85.1042 49.1979 85.3542 50.0521 85.8125 50.7188C86.2917 51.3854 86.9271 51.875 87.7188 52.1875C88.5104 52.5 89.4271 52.6562 90.4688 52.6562C91.4271 52.6562 92.2188 52.5208 92.8438 52.25C93.4896 51.9792 93.9792 51.6146 94.3125 51.1562C94.6458 50.6771 94.8125 50.125 94.8125 49.5ZM142.156 41.2188V49.3438H109.406L108.781 42.9062L127.062 13.5H135.375L126.344 28.2812L118.844 41.2188H142.156ZM137.562 13.5V59H127.031V13.5H137.562ZM166.781 50.7812V25.1875H177.344V59H167.469L166.781 50.7812ZM167.781 43.9062L170.531 43.8438C170.531 46.1146 170.26 48.2188 169.719 50.1562C169.177 52.0729 168.375 53.7396 167.312 55.1562C166.271 56.5729 164.979 57.6771 163.438 58.4688C161.917 59.2396 160.156 59.625 158.156 59.625C156.49 59.625 154.958 59.3958 153.562 58.9375C152.188 58.4583 151 57.7188 150 56.7188C149 55.6979 148.219 54.3958 147.656 52.8125C147.115 51.2083 146.844 49.2917 146.844 47.0625V25.1875H157.375V47.125C157.375 47.875 157.469 48.5208 157.656 49.0625C157.844 49.6042 158.115 50.0625 158.469 50.4375C158.823 50.7917 159.26 51.0625 159.781 51.25C160.323 51.4167 160.938 51.5 161.625 51.5C163.208 51.5 164.448 51.1667 165.344 50.5C166.24 49.8333 166.865 48.9271 167.219 47.7812C167.594 46.6354 167.781 45.3438 167.781 43.9062ZM202.344 13.5L186.781 62.9062H179.281L194.844 13.5H202.344ZM225.156 40.5312L206.156 34.0938V24.5312L233.656 35.7812V42.9375L225.156 40.5312ZM206.156 45.7812L225.156 39.1875L233.656 36.9688V44.0938L206.156 55.3438V45.7812Z" fill="#FEFEFE"/>
</svg>
