<svg width="117" height="25" viewBox="0 0 117 25" fill="none" xmlns="http://www.w3.org/2000/svg">
<path d="M5.98438 13.4844L14.5312 16.3594V21.1562L0.71875 15.5312V11.375L14.5312 5.75V10.5312L5.98438 13.4844ZM18.0312 23V0.25H25.3594C27.3698 0.25 29.1771 0.708333 30.7812 1.625C32.3854 2.53125 33.6354 3.81771 34.5312 5.48438C35.4375 7.14062 35.8958 9 35.9062 11.0625V12.1094C35.9062 14.1927 35.4635 16.0625 34.5781 17.7188C33.7031 19.3646 32.4635 20.6562 30.8594 21.5938C29.2656 22.5208 27.4844 22.9896 25.5156 23H18.0312ZM23.5156 4.48438V18.7812H25.4219C26.9948 18.7812 28.2031 18.224 29.0469 17.1094C29.8906 15.9844 30.3125 14.3177 30.3125 12.1094V11.125C30.3125 8.92708 29.8906 7.27083 29.0469 6.15625C28.2031 5.04167 26.974 4.48438 25.3594 4.48438H23.5156ZM47.3281 18.25C47.3281 17.8021 47.0938 17.4427 46.625 17.1719C46.1562 16.901 45.2656 16.6198 43.9531 16.3281C42.6406 16.0365 41.5573 15.6562 40.7031 15.1875C39.849 14.7083 39.1979 14.1302 38.75 13.4531C38.3021 12.776 38.0781 12 38.0781 11.125C38.0781 9.57292 38.7188 8.29688 40 7.29688C41.2812 6.28646 42.9583 5.78125 45.0312 5.78125C47.2604 5.78125 49.0521 6.28646 50.4062 7.29688C51.7604 8.30729 52.4375 9.63542 52.4375 11.2812H47.1562C47.1562 9.92708 46.4427 9.25 45.0156 9.25C44.4635 9.25 44 9.40625 43.625 9.71875C43.25 10.0208 43.0625 10.401 43.0625 10.8594C43.0625 11.3281 43.2917 11.7083 43.75 12C44.2083 12.2917 44.9375 12.5312 45.9375 12.7188C46.9479 12.9062 47.8333 13.1302 48.5938 13.3906C51.1354 14.2656 52.4062 15.8333 52.4062 18.0938C52.4062 19.6354 51.7188 20.8906 50.3438 21.8594C48.9792 22.8281 47.2083 23.3125 45.0312 23.3125C43.5833 23.3125 42.2917 23.0521 41.1562 22.5312C40.0208 22.0104 39.1354 21.3021 38.5 20.4062C37.8646 19.5104 37.5469 18.5677 37.5469 17.5781H42.4688C42.4896 18.3594 42.75 18.9323 43.25 19.2969C43.75 19.651 44.3906 19.8281 45.1719 19.8281C45.8906 19.8281 46.4271 19.6823 46.7812 19.3906C47.1458 19.099 47.3281 18.7188 47.3281 18.25ZM68.7031 14.1094H71.0156V18.1719H68.7031V23H63.4375V18.1719H54.6406L54.3281 14.9531L63.4375 0.296875V0.25H68.7031V14.1094ZM59.3438 14.1094H63.4375V7.10938L63.1094 7.64062L59.3438 14.1094ZM83.4844 21.1719C82.3698 22.599 80.8646 23.3125 78.9688 23.3125C77.1146 23.3125 75.7083 22.776 74.75 21.7031C73.8021 20.6198 73.3281 19.0677 73.3281 17.0469V6.09375H78.5938V17.0781C78.5938 18.526 79.2969 19.25 80.7031 19.25C81.9115 19.25 82.7708 18.8177 83.2812 17.9531V6.09375H88.5781V23H83.6406L83.4844 21.1719ZM93.2812 24.9531H89.5469L97.3125 0.25H101.062L93.2812 24.9531ZM111.484 13.4375L102.984 10.5469V5.76562L116.719 11.3906V15.5469L102.984 21.1719V16.3906L111.484 13.4375Z" fill="black"/>
</svg>
